<svg width="18" height="18" viewBox="0 0 18 18" fill="none" xmlns="http://www.w3.org/2000/svg">
<g clip-path="url(#clip0_423_2058)">
<path d="M1.5 9C1.5 13.1422 4.85775 16.5 9 16.5C13.1422 16.5 16.5 13.1422 16.5 9C16.5 4.85775 13.1422 1.5 9 1.5C5.925 1.5 3.28125 3.351 2.124 6M1.5 3.375L1.875 6.375L4.875 5.625" stroke="#22C55E" stroke-opacity="0.6" stroke-width="1.5" stroke-linecap="round" stroke-linejoin="round"/>
<path fill-rule="evenodd" clip-rule="evenodd" d="M6.49902 5.57084C6.49902 5.41944 6.56487 5.27425 6.68208 5.16719C6.79929 5.06014 6.95826 5 7.12402 5H10.874C11.0398 5 11.1988 5.06014 11.316 5.16719C11.4332 5.27425 11.499 5.41944 11.499 5.57084C11.499 5.72223 11.4332 5.86742 11.316 5.97448C11.1988 6.08153 11.0398 6.14167 10.874 6.14167H9.91465C10.0277 6.32051 10.1137 6.51254 10.1703 6.71251H10.874C11.0398 6.71251 11.1988 6.77265 11.316 6.8797C11.4332 6.98675 11.499 7.13195 11.499 7.28334C11.499 7.43474 11.4332 7.57993 11.316 7.68698C11.1988 7.79403 11.0398 7.85418 10.874 7.85418H10.1703C10.0532 8.26706 9.81207 8.6418 9.47404 8.93606C9.13602 9.23031 8.71461 9.43234 8.25746 9.5193L10.144 12.1043C10.1913 12.1667 10.2244 12.237 10.2416 12.3111C10.2587 12.3853 10.2596 12.4618 10.244 12.5363C10.2284 12.6107 10.1967 12.6816 10.1509 12.7448C10.105 12.808 10.0458 12.8621 9.9767 12.9042C9.90764 12.9462 9.8301 12.9753 9.74861 12.9896C9.66712 13.004 9.58331 13.0034 9.50207 12.9879C9.42084 12.9724 9.3438 12.9422 9.27546 12.8992C9.20712 12.8562 9.14884 12.8012 9.10402 12.7374L6.60402 9.31238C6.54131 9.22641 6.50531 9.12651 6.49986 9.02333C6.49442 8.92015 6.51973 8.81756 6.5731 8.72648C6.62647 8.6354 6.7059 8.55926 6.80292 8.50617C6.89994 8.45308 7.01092 8.42503 7.12402 8.42501H7.74902C8.21152 8.42501 8.61559 8.19554 8.83184 7.85418H7.12402C6.95826 7.85418 6.79929 7.79403 6.68208 7.68698C6.56487 7.57993 6.49902 7.43474 6.49902 7.28334C6.49902 7.13195 6.56487 6.98675 6.68208 6.8797C6.79929 6.77265 6.95826 6.71251 7.12402 6.71251H8.83184C8.7221 6.53891 8.56426 6.39477 8.37418 6.29456C8.18411 6.19436 7.96849 6.14163 7.74902 6.14167H7.12402C6.95826 6.14167 6.79929 6.08153 6.68208 5.97448C6.56487 5.86742 6.49902 5.72223 6.49902 5.57084Z" fill="#7ADC9E"/>
<path d="M7.12402 5.25H10.874C10.9804 5.25 11.0785 5.28862 11.1475 5.35156C11.2157 5.41385 11.249 5.49389 11.249 5.57129C11.2489 5.64855 11.2155 5.72788 11.1475 5.79004C11.0785 5.853 10.9804 5.8916 10.874 5.8916H9.46094L9.70312 6.27539C9.80354 6.4342 9.8798 6.60398 9.92969 6.78027L9.98145 6.96289H10.874C10.9804 6.96289 11.0785 7.00148 11.1475 7.06445C11.2155 7.12668 11.249 7.2059 11.249 7.2832C11.249 7.3605 11.2155 7.43971 11.1475 7.50195C11.0785 7.56493 10.9804 7.60449 10.874 7.60449H9.98145L9.92969 7.78613C9.82647 8.15013 9.61265 8.48323 9.30957 8.74707C9.00632 9.01105 8.62624 9.19439 8.21094 9.27344L7.82227 9.34766L8.05566 9.66699L9.94238 12.252L9.94434 12.2549C9.97083 12.2899 9.98902 12.3284 9.99805 12.3672C10.007 12.406 10.0072 12.4464 9.99902 12.4854C9.99085 12.5242 9.97388 12.5624 9.94824 12.5977C9.92251 12.6331 9.88846 12.665 9.84668 12.6904C9.80482 12.7159 9.75667 12.7341 9.70508 12.7432C9.6535 12.7523 9.6002 12.752 9.54883 12.7422C9.49752 12.7324 9.44947 12.7135 9.4082 12.6875C9.36709 12.6616 9.33358 12.6293 9.30859 12.5938L9.30566 12.5898L6.80566 9.16504C6.77068 9.11703 6.75281 9.06298 6.75 9.00977C6.74727 8.95666 6.75992 8.90227 6.78906 8.85254C6.81842 8.80261 6.86377 8.75794 6.92285 8.72559C6.98222 8.6931 7.05188 8.67482 7.12402 8.6748H7.74902C8.29351 8.6748 8.77897 8.40481 9.04297 7.98828L9.28613 7.60449H7.12402C7.01762 7.60449 6.91954 7.56493 6.85059 7.50195C6.78257 7.43971 6.74902 7.3605 6.74902 7.2832C6.74906 7.2059 6.78252 7.12668 6.85059 7.06445C6.91954 7.00148 7.01762 6.96289 7.12402 6.96289H9.28516L9.04297 6.5791C8.90882 6.36688 8.718 6.19286 8.49121 6.07324C8.2644 5.95367 8.00822 5.89156 7.74902 5.8916H7.12402C7.01764 5.8916 6.91953 5.853 6.85059 5.79004C6.78253 5.72788 6.74915 5.64855 6.74902 5.57129C6.74902 5.49389 6.78239 5.41385 6.85059 5.35156C6.90225 5.3044 6.97032 5.27072 7.0459 5.25684L7.12402 5.25Z" stroke="#22C55E" stroke-opacity="0.6" stroke-width="0.5"/>
</g>
<defs>
<clipPath id="clip0_423_2058">
<rect width="18" height="18" fill="white"/>
</clipPath>
</defs>
</svg>
