<?xml version="1.0" encoding="UTF-8"?>
<svg id="Layer_1" data-name="Layer 1" xmlns="http://www.w3.org/2000/svg" viewBox="0 0 479.26 479.26">
  <defs>
    <style>
      .cls-1 {
        fill: #27baa3;
        stroke-width: 6.84px;
      }

      .cls-1, .cls-2 {
        stroke: #27baa3;
        stroke-miterlimit: 10;
      }

      .cls-3 {
        fill: #191919;
      }

      .cls-2 {
        fill: #fff;
        stroke-width: 12.74px;
      }
    </style>
  </defs>
  <path class="cls-3" d="M325.83,152.98c-1.3-16.3-14.36-29.84-26.03-40.11-9.26-8.16-19.11-11.9-31.52-12.23-45.08,2.01-92.78-2.92-137.49.52-12.41.95-19.48,3.41-28.91,11.71-11.59,10.2-24.56,23.52-25.97,39.65l-.06,126.49c.89,18.55,20.6,38.8,39.32,38.8h101.82c-5.45,8.15,4.06,17.83,11.99,11.73,3.53-2.72,13.61-12.86,16.4-16.41,2.26-2.87,1.58-5.62-.52-8.36-2.62-3.41-11.42-12.05-14.85-14.84-8.31-6.75-18.37,1.76-13.03,10.68h-103.38c-1.18,0-7.41-2.93-8.75-3.75-6.8-4.16-11.54-12.08-12.28-20.01l.46-125.71h215.61l.46,125.71c-1.08,10.37-8.28,19.68-18.28,22.86-6.24,1.98-18.43-1.39-20.08,7.52-2.53,13.7,15.87,11.02,23.95,8.85,17.02-4.57,29.87-20.57,31.16-38.11l-.03-125.01ZM296.67,134.48H105.01c-.21-.89.34-1.04.78-1.57,6.09-7.31,14.49-14.66,24.46-15.12l142.19.03c9.42.82,17.64,8.12,23.44,15.1.44.52.99.67.78,1.57Z"/>
  <path class="cls-3" d="M171.01,233.43v11.65c0,14.03-7.08,22.04-20.75,22.04s-20.75-8.01-20.75-22.04v-45.58c0-14.03,7.08-22.04,20.75-22.04s20.75,8.01,20.75,22.04v8.52h-13.16v-9.39c0-6.26-2.78-8.64-7.21-8.64s-7.21,2.38-7.21,8.64v47.34c0,6.26,2.78,8.52,7.21,8.52s7.21-2.25,7.21-8.52v-12.52h13.16Z"/>
  <path class="cls-3" d="M178.34,199.49c0-14.03,7.46-22.04,21.12-22.04s21.12,8.01,21.12,22.04v45.58c0,14.03-7.46,22.04-21.12,22.04s-21.12-8.01-21.12-22.04v-45.58ZM192.26,245.95c0,6.26,2.78,8.64,7.21,8.64s7.21-2.38,7.21-8.64v-47.34c0-6.26-2.78-8.64-7.21-8.64s-7.21,2.38-7.21,8.64v47.34Z"/>
  <path class="cls-3" d="M229.57,178.45h22.01c13.91,0,20.75,7.64,20.75,21.67v44.33c0,14.03-6.83,21.66-20.75,21.66h-22.01v-87.66ZM243.48,190.98v62.61h7.84c4.43,0,7.08-2.25,7.08-8.52v-45.58c0-6.26-2.66-8.52-7.08-8.52h-7.84Z"/>
  <g>
    <path class="cls-2" d="M283.41,319.36c0-33.14,26.86-60,60-60s60,26.86,60,60-26.86,60-60,60-60-26.86-60-60Z"/>
    <polygon class="cls-1" points="371.46 292.45 376.4 297.54 327.59 346.27 304.92 323.58 309.8 318.62 327.58 336.32 371.46 292.45"/>
  </g>
</svg>