<?xml version="1.0" encoding="UTF-8"?>
<svg id="Layer_1" data-name="Layer 1" xmlns="http://www.w3.org/2000/svg" viewBox="0 0 479.26 479.26">
  <defs>
    <style>
      .cls-1 {
        fill: #27baa3;
        stroke-width: 6.84px;
      }

      .cls-1, .cls-2 {
        stroke: #27baa3;
      }

      .cls-1, .cls-2, .cls-3 {
        stroke-miterlimit: 10;
      }

      .cls-4 {
        font-family: Poppins-SemiBold, Poppins;
        font-size: 48px;
        font-weight: 600;
      }

      .cls-4, .cls-2 {
        fill: #fff;
      }

      .cls-2 {
        stroke-width: 12.74px;
      }

      .cls-3 {
        fill: #191919;
        stroke: #191919;
        stroke-width: 5.32px;
      }
    </style>
  </defs>
  <text class="cls-4" transform="translate(103.84 -24.82)"><tspan x="0" y="0">480x480px</tspan></text>
  <g>
    <g>
      <path class="cls-3" d="M77.07,157.31v-.98c0-1.65.97-3.2,2.53-3.77.37-.13.76-.21,1.2-.19h32.41c.79.01,1.59.22,2.23.68,3.43,2.42,2.53,7.31-1.94,8.45-.29.07-.59.1-.89.1h-31.77c-.94-.09-1.63-.6-2.28-1.16-.92-.78-1.47-1.92-1.47-3.13Z"/>
      <path class="cls-3" d="M288.42,139.85c0,2.16,1.75,3.91,3.91,3.91h31.5c.65,0,3.65,1.16,4.87,2.04,1.07.76,2.15,2.1,3.09,3.17.2.23.38.48.52.75,7.6,14.61,16.21,28.76,24.16,43.16,6.77,12.25,4.87,27.19,4.87,38.22,0,.74-.36,3.45-.39,3.6-1.1,7.48-7.24,7.77-13.35,7.61-1.82-.05-3.4,1.17-3.88,2.93-1.45,5.35-5.36,10.47-9.85,13.36-14.26,9.2-33.56,2.34-37.95-13.54-.47-1.69-2.04-2.84-3.8-2.84h-77.67c-1.74,0-3.3,1.14-3.75,2.82-2.35,8.68-10,15.37-18.87,17.2-13.18,2.72-24.75-4.82-29.25-17.12,0,0,0-.02-.01-.03-.57-1.64-2.01-2.81-3.74-2.81l-36.6-.06c-.43,0-.85-.06-1.26-.21-1.45-.53-3.57-1.89-3.57-2.95v-30.1c0-1.35-1.09-2.44-2.44-2.44l-34.28-.42c-.32,0-2.36-.87-2.71-1.32-2.39-3.17.27-6.8,3.73-7.4.2-.04.41-.05.62-.05l56.69-.05c4.17-.09,6.52,2.89,5.19,6.96-.26.78-1.68,2.28-2.33,2.28h-11.35c-2.16,0-3.91,1.75-3.91,3.91v18.67c0,2.16,1.75,3.91,3.91,3.91h30.93c.69,0,1.32-3.6,1.73-4.61,9.1-22.76,42.13-20.68,47.95,2.73.15.6.03,1.88.13,1.88h63.17c2.63,0,4.77-2.15,4.77-4.77v-111.66c0-2.16-1.75-3.91-3.91-3.91h-144.77c-2.16,0-3.91,1.75-3.91,3.91v6.58c0,2.16,1.75,3.91,3.91,3.91h25.17c.15,0,1.7,1.67,1.94,2.09,1.16,2.08.71,3.86-.64,5.29-.7.74-1.67,1.18-2.69,1.22-9.64.35-19.35-.36-28.98,0-2.25.09-4.5.08-6.76,0-7.53-.27-15.11.36-22.64-.07-3.06-.66-3.75-5.13-1.83-7.38.22-.25,1.62-1.15,1.73-1.15h17.68c2.16,0,3.91-1.75,3.91-3.91v-13.65c0-.15,1.2-2.21,1.46-2.57.88-1.21,2.08-2.11,3.39-2.79.54-.28,1.14-.43,1.75-.43,52.24-.61,104.61-.05,156.89-.27.23,0,.46.01.68.05,2.9.52,4.95,2.39,5.98,5.14.17.44.85,3.41.85,3.55v27.68ZM349.24,232.92c1.38.05,2.52-1.05,2.52-2.43v-24.82c0-1.88-3.42-8.4-4.5-10.48-7.15-13.75-15.68-26.83-22.64-40.7-.22-.46-1.73-1.51-1.95-1.51h-31.82c-1.35,0-2.44,1.09-2.44,2.44v75.16c0,1.35,1.09,2.44,2.44,2.44h2.45c1.15,0,2.12-.81,2.38-1.93,4.05-17.57,25.86-24.79,40.24-13.04,4.19,3.42,6.79,8.02,8.4,13.09.31.98,1.2,1.66,2.23,1.7l2.67.1ZM184.05,221.63c-11.28,1.62-17.02,15.41-10.7,24.83,6.1,9.09,19.38,9.59,26.08.91,8.95-11.58-.99-27.81-15.38-25.74ZM317.05,221.61c-11.11,1.9-17.01,15.42-10.69,24.85,5.08,7.58,16.04,9.61,23.24,3.83,13.11-10.53,3.79-31.47-12.55-28.68Z"/>
      <path class="cls-3" d="M136.95,176.58h61.32c.34,0,2.65,1.81,2.89,2.3,1.42,2.84-.32,6.45-3.47,6.91l-82.35.03c-3.61-.23-5.16-3.45-3.64-7.14.27-.66,2.04-2.09,2.51-2.09h13.53v-27.93c0-.11,1.2-1.81,1.28-1.89.43-.42,2.88-1.35,3.59-1.3,1.32.1,4.34,2.67,4.34,3.76v27.35Z"/>
    </g>
    <g>
      <path class="cls-2" d="M282.19,315.85c0-33.14,26.86-60,60-60s60,26.86,60,60-26.86,60-60,60-60-26.86-60-60Z"/>
      <polygon class="cls-1" points="370.25 288.94 375.19 294.03 326.38 342.76 303.7 320.07 308.58 315.11 326.37 332.81 370.25 288.94"/>
    </g>
  </g>
</svg>